<?xml version="1.0" encoding="UTF-8"?>
<svg width="512px" height="512px" viewBox="0 0 512 512" version="1.1" xmlns="http://www.w3.org/2000/svg" xmlns:xlink="http://www.w3.org/1999/xlink">
    <!-- Generator: Sketch 52.6 (67491) - http://www.bohemiancoding.com/sketch -->
    <title>Group</title>
    <desc>Created with Sketch.</desc>
    <defs>
        <filter x="-13.0%" y="-1.9%" width="127.2%" height="103.9%" filterUnits="objectBoundingBox" id="filter-1">
            <feGaussianBlur stdDeviation="1" in="SourceGraphic"></feGaussianBlur>
        </filter>
    </defs>
    <g id="logo-512" stroke="none" stroke-width="1" fill="none" fill-rule="evenodd">
        <g id="Group" fill-rule="nonzero">
            <g id="right-handle" transform="translate(428.000000, 283.000000)">
                <path d="M20.8627451,30.7491392 C17.9346405,32.0812288 10.9803922,32.5807624 0,32.24774 L0,62.2197553 C4.10713458,62.7672535 6.72826663,63.0912154 7.86339615,63.1916408 C21.8700179,64.4308127 47.1520843,64.9812412 62.0392157,59.2225538 C69.2281947,56.4416901 75.1386861,53.4965422 78.5098039,49.231882 C83.4301767,43.0073241 84,35.3070259 84,32.24774 C84,14.5911139 59.9111638,0.277590286 30.1960784,0.277590286 C26.1284536,0.277590286 19.4652031,-0.346987858 11.5294118,0.277590286 C9.09362621,0.469296236 5.25048895,1.13534102 0,2.27572464 L1.10926893e-14,22.7566018 L30.1960784,22.7566018 C29.9859122,22.2454142 30.3519253,22.911459 31.2941176,24.7547361 C31.9695081,26.0760499 23.0840651,29.7385888 20.8627451,30.7491392 Z" id="Oval" fill="#EA2227"></path>
                <path d="M25.2854489,33.6158235 C22.7362755,34.7201756 15.9548514,36.2264933 4.94117647,38.1347764 L4.94117647,56.5241105 C8.51679951,56.978007 10.7987262,57.2465835 11.7869566,57.3298399 C23.9809568,58.3571599 45.9912264,58.8134857 58.9517878,54.0393182 C65.2104284,51.733878 70.3560326,49.2922401 73.2908881,45.7566771 C77.5745068,40.5962855 78.0705882,34.2124499 78.0705882,31.6761873 C78.0705882,23.3572948 59.7159885,6 41.5058824,6 C40.6856208,14.4110235 40.6856208,19.3806081 41.5058824,20.9087539 C41.8004406,21.4575154 39.0315789,25.0800235 35.1826625,28.0926588 C31.3337461,31.1052941 26.250519,33.1977361 25.2854489,33.6158235 Z" id="Oval" fill="#FD3F48"></path>
            </g>
            <g id="left-handle" transform="translate(43.000000, 315.000000) scale(-1, 1) translate(-43.000000, -315.000000) translate(0.000000, 283.000000)">
                <path d="M21.3594771,30.7491392 C18.3616558,32.0812288 11.2418301,32.5807624 0,32.24774 L0,62.2197553 C4.20492349,62.7672535 6.88846345,63.0912154 8.05061987,63.1916408 C22.3907326,64.4308127 48.274753,64.9812412 63.5163399,59.2225538 C70.8764851,56.4416901 76.9277025,53.4965422 80.379085,49.231882 C85.4166095,43.0073241 86,35.3070259 86,32.24774 C86,14.5911139 61.3376201,0.277590286 30.9150327,0.277590286 C26.7505597,0.277590286 19.9286604,-0.346987858 11.8039216,0.277590286 C9.31014112,0.469296236 5.3755006,1.13534102 0,2.27572464 L1.13568009e-14,22.7566018 L30.9150327,22.7566018 C30.6998625,22.2454142 31.0745902,22.911459 32.0392157,24.7547361 C32.7306868,26.0760499 23.6336857,29.7385888 21.3594771,30.7491392 Z" id="Oval" fill="#EA2227"></path>
                <path d="M25.8646617,33.6158235 C23.2502826,34.7201756 16.2953954,36.2264933 5,38.1347764 L5,56.5241105 C8.66708444,56.978007 11.0073809,57.2465835 12.0208894,57.3298399 C24.5268017,58.3571599 47.1000753,58.8134857 60.3921569,54.0393182 C66.8108882,51.733878 72.0881126,49.2922401 75.0980392,45.7566771 C79.4912292,40.5962855 80,34.2124499 80,31.6761873 C80,23.3572948 61.1759051,6 42.5,6 C41.6587568,14.4110235 41.6587568,19.3806081 42.5,20.9087539 C42.8020928,21.4575154 39.962406,25.0800235 36.0150376,28.0926588 C32.0676692,31.1052941 26.8544174,33.1977361 25.8646617,33.6158235 Z" id="Oval" fill="#FD3F48"></path>
            </g>
            <path d="M428.797362,390.540022 C428.931937,391.388805 429,392.258114 429,393.14841 C429,409.109191 422.814442,453.162769 388,480.233216 C357.494046,503.953538 301.363653,512 257,512 C213.083983,512 158.896003,503.626192 128.5,480.233216 C94.7094093,454.227741 85.7729795,413.085762 85.0493473,395.440653 C84.9505804,394.393097 84.8630054,393.257004 84.7871041,392.016736 C83.737632,374.867804 83.737632,342.528892 84.7871041,295 C104.558662,310.573595 121.76154,320.62241 136.395737,325.146444 C177.773494,337.938015 232.123711,339.945607 257.149917,339.945607 C283.786239,339.945607 345.270879,338.962948 390.430464,320.761506 C403.616853,315.44677 416.644275,306.859601 429.512729,295 C430.162424,333.556374 430.162424,361.327643 429.512729,378.313808 C429.354373,382.454014 429.115917,386.529418 428.797362,390.540022 Z" id="pot" stroke="#EA2227" fill="#EA2227"></path>
            <path d="M257.5,343 C348.943589,343 423.138259,324.618829 429,297.5 C429.245225,296.365488 430,292.153203 430,291 C430,262.281193 352.769119,239 257.5,239 C162.230881,239 85,262.281193 85,291 C85,319.718807 162.230881,343 257.5,343 Z" id="inside-of-pot" fill="#B3B3B3"></path>
            <g id="lid" transform="translate(62.000000, 58.000000)">
                <path d="M50.5,245.5 C90.9593466,245.5 154.550347,230.477999 211.5,208 C274.601936,183.093697 329.788508,149.281577 341.5,122 C343.674243,116.935165 344.5,111.5 338,105.5 C331.5,99.5 325.666188,100.846467 325.5,99.5 C323.754682,85.359349 308.002678,72.6081425 293.5,63 C276.178861,51.5246047 258.033041,44.5 232,44.5 C201,44.5 184.5,43.5 151.5,52 C136.493966,55.8651906 135.15452,56.5537497 115,65 C90.8324058,75.1280285 70.5582258,88.1598889 65.5,92.5 C50.0574592,105.750168 48.9187184,106.74275 22.5,136 C15,144.30583 9.07645423,156.710916 5,167.5 C-0.924004452,183.178964 1.86088247,200.016621 2.5,212 C2.86117823,218.772049 -3.00388696,227.641246 2.5,232.5 C6.22445232,235.787894 13.5,240.5 22.5,240.5 C31.5,240.5 36.788412,245.5 50.5,245.5 Z" id="Oval" stroke="#E6E7E8" fill="#E6E7E8"></path>
                <path d="M128,93 C137.82792,90.4361949 163,82.5 176,73.5 C177.404309,72.5277863 191,67 196.5,56 C202,45 198,53.5 199.5,50 C201.131507,46.1931498 192.883945,42.8409692 190.5,41.5 C182.5,37 163,43.3122337 163,38.5 C163,29.7678984 162.629817,18.8287336 158,11.5 C152.527356,2.83711954 141.471312,1.42108547e-14 131,1.42108547e-14 C111.670034,1.42108547e-14 87.5,16.4461761 87.5,35.5 C87.5,45.9796975 93.0648117,55.1726571 101.5,61.5 C101.687346,61.6405307 91.3267161,65.711148 85,71.5 C78.6360397,77.3229299 76.5402075,84.7989623 76.5,85 C76,87.5 76.9431462,90.7712289 79,92 C81.440976,93.4582469 83.5769407,95.3912221 87.5,96 C96,97.3190246 102.369602,97.3190246 108,97 C118.438342,96.4085519 116.5,96 128,93 Z" id="Oval" stroke="#6D6E70" fill="#6D6E70"></path>
            </g>
            <path d="M398.5,0 C414.5,18 418.867757,29.0468245 420.5,34.5 C422.132243,39.9531755 426.26638,40.7530294 420.5,67 C414.73362,93.2469706 400.393281,115.221042 409.5,139.175672 C418.606719,163.130302 427.431822,168.614891 429,173 C429.691907,174.934784 430.071896,179.02018 430.139968,185.256188 L430.139969,185.256188 C430.215837,192.206298 427.002898,198.783506 421.47423,202.995825 L414.25,208.5" id="Path" stroke="#E49A5F" stroke-width="3" filter="url(#filter-1)"></path>
        </g>
    </g>
</svg>